<svg width="615" height="555" viewBox="0 0 615 555" fill="none" xmlns="http://www.w3.org/2000/svg">
<path opacity="0.1" d="M447.95 131.383C485.078 174.478 527.842 193.374 541.102 224.203C554.362 255.033 537.787 297.796 520.217 336.582C502.316 375.036 483.089 409.18 454.249 454.264C425.408 499.017 386.954 555.04 348.5 554.709C310.378 554.377 271.924 498.354 221.536 460.563C171.148 422.44 108.162 402.882 78.9905 360.781C49.8185 319.012 54.4595 254.701 77.6645 200.335C100.538 146.301 142.307 101.88 190.374 62.7627C238.774 23.3142 293.471 -11.4933 336.566 5.08172C379.661 21.3252 411.154 88.2882 447.95 131.383Z" fill="#2734FF"/>
<g filter="url(#filter0_d_12_744)">
<path d="M60.5251 142.028H177.752C177.752 142.028 172.635 128.936 164.81 128.334C156.985 127.582 152.471 137.514 145.247 131.194C138.024 124.873 127.189 109.373 115.903 110.577C104.466 111.781 109.583 130.14 99.0489 130.742C88.5151 131.344 86.1073 124.422 77.5298 132.247C68.8018 140.072 66.9959 139.169 63.6853 137.664C60.3747 136.159 56.1611 142.179 56.1611 142.179H60.5251V142.028Z" fill="#F0EFFF"/>
</g>
<path d="M407.088 350.749L406.185 349.997C406.185 349.997 407.69 348.191 410.098 344.73C412.506 341.269 415.816 336.303 419.578 330.133C426.952 317.793 435.68 300.638 442.753 282.731C449.976 264.823 455.393 246.464 459.005 232.469C460.66 225.396 462.015 219.678 463.068 215.464C463.821 211.401 464.272 208.994 464.272 208.994L465.325 209.144C465.325 209.144 464.874 211.552 463.971 215.615C463.068 219.678 461.563 225.547 459.908 232.62C456.146 246.614 450.728 265.124 443.505 283.031C436.433 300.939 427.704 318.245 420.331 330.584C413.258 343.225 407.088 350.749 407.088 350.749Z" fill="#F0EFFF"/>
<path d="M463.52 216.066C463.52 216.066 463.52 214.562 463.369 212.154C463.369 209.746 463.369 206.134 463.67 202.071C463.821 199.965 464.122 197.858 464.423 195.601C464.724 193.343 465.024 190.936 465.476 188.528C466.379 183.712 467.733 178.596 469.99 173.781C469.99 173.781 471.495 180.101 471.495 188.678C471.495 190.785 471.345 193.042 471.194 195.45C470.893 197.858 470.442 200.115 469.84 202.523C468.486 207.338 466.529 212.003 463.52 216.066Z" fill="#F0EFFF"/>
<path d="M460.961 226.6C460.961 226.6 463.971 221.333 471.194 216.367C478.116 211.401 489.252 206.736 505.805 208.392C505.805 208.392 505.354 211.853 503.097 216.518C501.893 218.925 500.388 221.484 498.131 224.192C495.723 226.901 492.864 229.459 488.951 231.867C481.427 236.532 474.354 235.027 469.238 232.619C464.272 230.061 460.961 226.6 460.961 226.6Z" fill="#F0EFFF"/>
<path d="M443.355 282.43C443.355 282.43 443.505 280.925 443.204 278.367C442.903 275.809 442.151 272.347 440.495 268.435C439.593 266.479 438.539 264.522 437.185 262.416C435.68 260.309 434.025 258.352 431.767 256.246C427.554 252.183 421.685 248.571 414.01 245.411C414.01 245.411 412.806 247.969 412.806 252.484C412.656 256.848 413.408 263.017 417.321 270.542C421.083 277.915 427.554 281.075 433.122 282.129C438.69 283.483 443.355 282.43 443.355 282.43Z" fill="#F0EFFF"/>
<path d="M456.748 242.852C456.748 242.852 456.296 241.197 455.393 238.789C454.942 237.585 454.34 236.08 453.588 234.425C452.835 232.77 452.083 231.115 451.029 229.309C446.966 222.086 440.646 214.411 432.37 211.251C432.37 211.251 432.219 214.26 433.122 218.624C433.573 220.731 434.326 223.289 435.379 225.848C436.583 228.406 437.937 231.115 439.894 233.673C443.656 238.488 447.869 240.745 451.18 241.949C454.34 243.003 456.748 242.852 456.748 242.852Z" fill="#F0EFFF"/>
<path d="M433.423 305.454C433.423 305.454 434.476 304.25 436.433 302.745C438.389 301.24 441.399 299.133 445.462 297.478C453.287 294.017 465.175 291.459 480.976 296.274C480.976 296.274 479.922 299.585 476.762 303.798C475.107 305.905 473.151 308.313 470.292 310.419C467.432 312.677 463.971 314.633 459.758 316.288C451.331 319.448 444.709 316.439 440.345 312.978C438.088 311.172 436.433 309.366 435.229 307.861C434.025 306.507 433.423 305.454 433.423 305.454Z" fill="#F0EFFF"/>
<path d="M428.607 315.837C428.607 315.837 426.501 309.517 421.986 302.745C417.622 295.973 410.549 288.6 402.122 285.59C402.122 285.59 402.122 286.342 402.423 287.697C402.574 289.051 403.025 290.857 403.627 292.964C404.831 297.177 407.088 302.594 411.452 307.56C415.515 312.225 419.729 314.332 423.039 315.235C426.2 316.138 428.607 315.837 428.607 315.837Z" fill="#F0EFFF"/>
<path d="M449.976 264.673C449.976 264.673 455.544 261.362 463.52 258.503C471.495 255.794 481.277 253.236 489.854 255.794C489.854 255.794 489.403 256.547 488.349 257.6C487.446 258.804 486.092 260.309 484.136 261.814C480.374 264.974 474.956 268.435 468.335 269.639C462.165 270.692 457.651 269.338 454.491 267.833C451.481 266.328 449.976 264.673 449.976 264.673Z" fill="#F0EFFF"/>
<path d="M133.058 360.53L132.757 361.433C132.757 361.433 130.65 360.681 127.189 358.875C123.728 357.069 118.913 354.36 113.345 350.448C107.927 346.686 101.908 341.72 95.8886 335.851C89.8693 329.982 84.0004 323.361 78.583 316.288C67.8987 302.143 59.4717 286.342 54.2048 274.002C53.6028 272.497 52.8504 270.993 52.2484 269.638C51.6465 268.284 51.195 266.93 50.5931 265.575C49.6902 263.017 48.6369 260.91 48.0349 258.954C46.6806 255.342 46.0786 253.236 46.0786 253.236L47.132 252.935C47.132 252.935 47.8844 255.041 49.0883 258.653C49.6902 260.459 50.5931 262.716 51.6465 265.124C52.098 266.328 52.6999 267.682 53.3018 269.187C53.9038 270.541 54.5057 272.046 55.2581 273.551C60.525 285.74 68.9521 301.39 79.6364 315.536C84.9034 322.608 90.7722 329.23 96.7915 334.948C102.811 340.666 108.68 345.632 114.097 349.394C119.515 353.156 124.33 356.016 127.791 357.671C131.102 359.778 133.058 360.53 133.058 360.53Z" fill="#F0EFFF"/>
<path d="M48.7875 259.405C48.7875 259.405 48.0351 258.352 46.8312 256.396C45.6274 254.439 43.9721 251.58 42.4672 248.119C39.3071 241.197 36.5984 231.415 36.8994 221.634C36.8994 221.634 37.8023 222.838 39.0061 225.095C40.21 227.202 41.7148 230.362 43.3701 233.823C45.0255 237.435 46.3798 241.498 47.5837 245.862C48.4866 250.226 49.239 254.74 48.7875 259.405Z" fill="#F0EFFF"/>
<path d="M52.2486 268.735C52.2486 268.735 52.0981 267.231 52.399 264.973C52.7 262.566 53.1515 259.405 54.9573 255.944C56.6126 252.333 59.0203 248.571 63.0834 244.959C67.1464 241.347 72.4133 238.037 79.6365 235.328C79.6365 235.328 79.9375 235.93 80.088 236.983C80.3889 238.037 80.5395 239.692 80.5395 241.648C80.5395 243.605 80.389 246.012 79.787 248.721C79.1851 251.43 78.1317 254.44 76.3259 257.901C72.8648 264.672 66.9959 267.682 61.8795 268.735C59.3213 269.337 56.9135 269.337 55.2582 269.337C53.4524 268.886 52.2486 268.735 52.2486 268.735Z" fill="#F0EFFF"/>
<path d="M78.7335 315.686C78.7335 315.686 77.6801 314.783 75.5734 313.73C73.4666 312.676 70.4569 311.322 66.5444 310.419C62.6318 309.516 57.9668 308.764 52.3989 309.215C46.8311 309.667 40.6612 310.871 33.739 314.181C33.739 314.181 35.2438 317.341 38.8554 320.953C39.7583 321.856 40.8117 322.759 42.0156 323.812C43.2195 324.715 44.5738 325.618 46.0786 326.521C49.0883 328.176 52.6999 329.681 56.9134 330.433C65.3405 332.089 70.6074 328.026 74.0685 323.963C75.7239 322.006 76.9277 319.9 77.6801 318.395C78.2821 316.739 78.7335 315.686 78.7335 315.686Z" fill="#F0EFFF"/>
<path d="M58.7193 282.881C58.7193 282.881 57.5154 282.128 55.2582 280.925C54.2048 280.323 52.8505 279.57 51.3456 278.818C49.8408 278.065 48.336 277.313 46.5302 276.41C44.7244 275.658 42.9186 274.755 40.8118 274.153C38.8555 273.4 36.8992 272.799 34.7924 272.197C30.5789 271.143 26.3654 270.692 22.1519 271.444C22.1519 271.444 23.8072 274.454 27.1178 277.765C28.6227 279.42 30.8799 281.226 33.1372 282.73C35.5449 284.235 38.2536 285.59 41.2633 286.342C46.9816 287.696 51.3457 286.793 54.2048 285.59C57.2145 284.386 58.7193 282.881 58.7193 282.881Z" fill="#F0EFFF"/>
<path d="M93.7821 333.293C93.7821 333.293 93.1802 332.089 92.4278 329.831C91.8259 327.574 91.2239 324.414 91.5249 320.502C91.8258 316.589 92.8792 312.225 95.4375 307.56C97.9957 302.895 101.908 298.079 107.777 293.114C107.777 293.114 108.078 293.565 108.68 294.468C109.282 295.371 109.884 296.575 110.486 298.38C111.088 300.036 111.69 302.143 111.84 304.851C112.141 307.409 111.991 310.57 111.69 314.181C111.238 317.943 110.034 320.953 108.229 323.511C106.573 326.069 104.466 328.026 102.209 329.531C100.102 331.035 97.8452 331.938 96.3404 332.54C94.8355 333.142 93.7821 333.293 93.7821 333.293Z" fill="#F0EFFF"/>
<path d="M101.607 340.365C101.607 340.365 95.5879 340.967 88.0637 342.472C80.5395 344.127 71.36 346.686 65.9426 353.006C65.9426 353.006 66.695 353.457 68.1999 353.909C69.5542 354.36 71.661 354.962 73.9182 355.564C76.326 356.016 79.0347 356.317 81.8939 356.016C84.7531 355.865 87.7627 355.113 90.6219 353.909C95.8888 351.501 98.5975 347.889 100.102 345.181C101.306 342.472 101.607 340.365 101.607 340.365Z" fill="#F0EFFF"/>
<path d="M68.8018 301.24C68.8018 301.24 69.1027 299.735 69.7047 297.327C70.3066 294.919 71.5105 291.759 73.0153 288.449C74.5202 285.138 76.7774 281.526 79.4861 278.366C82.1948 275.206 85.3549 272.497 89.117 270.692C89.117 270.692 89.2675 273.25 88.6656 277.162C88.3646 279.119 87.9132 281.376 87.0103 283.633C86.1074 286.041 84.9035 288.599 83.3987 291.007C80.2385 295.672 76.7774 298.381 73.9182 299.584C70.9085 301.089 68.8018 301.24 68.8018 301.24Z" fill="#F0EFFF"/>
<path d="M522.509 344.579C522.509 344.579 447.569 347.89 441.248 356.768C434.928 365.647 523.713 363.239 541.019 359.627C541.019 359.627 588.572 367.603 612.799 354.511C615.358 353.156 614.906 349.394 612.047 348.642C600.309 345.331 571.266 339.613 522.509 344.579Z" fill="#DEDBFF"/>
<g filter="url(#filter1_d_12_744)">
<path d="M408.142 106.665H554.261C554.261 106.665 547.941 90.4127 538.159 89.5098C528.378 88.6069 522.81 100.946 513.932 93.1213C504.903 85.2962 491.51 65.8839 477.364 67.3887C463.219 68.8935 469.539 91.6165 456.447 92.3689C443.355 93.1213 440.345 84.5438 429.51 94.1747C418.676 103.956 416.418 102.752 412.355 100.946C408.292 99.1407 403.025 106.514 403.025 106.514H408.142V106.665Z" fill="#F0EFFF"/>
</g>
<path d="M434.928 434.116C434.928 434.116 346.293 430.053 326.73 436.073C307.318 442.092 360.439 445.252 400.768 446.005C441.248 446.607 449.073 442.393 449.073 442.393C449.073 442.393 476.311 441.942 481.427 436.073C486.544 430.204 452.836 426.893 434.928 434.116Z" fill="#DEDBFF"/>
<path d="M305.512 359.326H408.894C418.525 359.326 426.35 351.501 426.35 341.87V142.028C426.35 132.397 418.525 124.572 408.894 124.572H305.512C295.881 124.572 288.056 132.397 288.056 142.028V341.87C288.056 351.501 295.881 359.326 305.512 359.326Z" fill="#F7F7F7"/>
<path d="M408.894 359.928H305.512C295.58 359.928 287.454 351.802 287.454 341.87V142.028C287.454 132.097 295.58 123.97 305.512 123.97H408.894C418.826 123.97 426.952 132.097 426.952 142.028V341.87C426.952 351.802 418.826 359.928 408.894 359.928ZM305.512 125.174C296.182 125.174 288.658 132.698 288.658 142.028V341.87C288.658 351.2 296.182 358.725 305.512 358.725H408.894C418.224 358.725 425.748 351.2 425.748 341.87V142.028C425.748 132.698 418.224 125.174 408.894 125.174H305.512Z" fill="#E6E7E8"/>
<path d="M398.661 283.483H315.745C314.692 283.483 313.789 282.58 313.789 281.526V261.211C313.789 260.158 314.692 259.255 315.745 259.255H398.661C399.715 259.255 400.618 260.158 400.618 261.211V281.526C400.467 282.58 399.715 283.483 398.661 283.483Z" fill="#E8E8E8"/>
<path d="M398.661 316.89H315.745C314.692 316.89 313.789 315.988 313.789 314.934V294.619C313.789 293.565 314.692 292.663 315.745 292.663H398.661C399.715 292.663 400.618 293.565 400.618 294.619V314.934C400.467 315.988 399.715 316.89 398.661 316.89Z" fill="#E8E8E8"/>
<path d="M408.894 124.572H305.512C295.881 124.572 288.056 132.397 288.056 142.028V157.378H426.35V142.028C426.35 132.397 418.525 124.572 408.894 124.572Z" fill="#2734FF"/>
<path d="M453.437 402.214C453.437 402.214 455.394 407.933 455.394 413.35C455.394 418.768 455.995 423.733 457.5 423.884C459.156 424.034 460.359 419.52 461.864 415.156C463.369 410.792 465.927 403.117 465.927 401.763C465.927 400.409 463.971 398.603 459.908 398.151C455.845 397.7 453.437 402.214 453.437 402.214Z" fill="url(#paint0_linear_12_744)"/>
<path d="M432.671 315.686C432.671 315.686 426.651 360.079 427.554 363.389C428.457 366.7 459.005 397.399 459.005 397.399C459.005 397.399 457.651 401.913 454.19 403.418C450.879 404.923 418.074 379.04 415.817 376.331C413.559 373.622 404.38 367.753 407.089 351.05C409.647 334.647 432.671 315.686 432.671 315.686Z" fill="url(#paint1_linear_12_744)"/>
<path d="M386.924 419.52C386.924 419.52 382.108 423.131 376.992 424.786C371.725 426.442 367.361 428.549 367.662 430.053C367.963 431.558 372.628 431.558 377.293 431.558C381.958 431.709 389.933 431.859 391.288 431.408C392.642 430.956 393.696 428.549 392.943 424.486C392.191 420.573 386.924 419.52 386.924 419.52Z" fill="url(#paint2_linear_12_744)"/>
<path d="M431.617 316.439L433.272 318.696C433.272 318.696 438.389 322.458 427.253 335.701C416.117 348.943 400.016 366.399 398.962 368.055C397.909 369.71 392.792 421.175 392.642 422.379C392.341 423.583 385.419 424.636 382.56 421.627C382.56 421.627 381.807 376.632 382.56 368.807C383.312 360.982 401.37 328.477 405.132 319.298C408.894 310.118 431.617 316.439 431.617 316.439Z" fill="url(#paint3_linear_12_744)"/>
<path d="M417.622 261.512C417.622 261.512 423.341 262.867 427.554 273.551C431.768 284.235 427.855 298.832 431.166 306.356C434.477 313.88 435.831 316.89 433.273 318.846C430.714 320.953 421.084 318.696 415.666 320.502C410.249 322.308 404.079 320.652 403.778 316.89C403.477 313.128 402.273 296.123 401.671 290.104C400.919 284.085 401.22 268.133 409.797 261.663H417.622V261.512Z" fill="url(#paint4_linear_12_744)"/>
<path d="M341.779 293.415C342.08 294.317 342.531 295.22 342.832 296.123L339.07 299.885L353.817 314.633L357.579 310.871C358.482 311.322 359.385 311.623 360.288 311.924V317.341H381.205V311.924C382.108 311.623 383.011 311.172 383.914 310.871L387.676 314.633L402.423 299.885L398.661 296.123C399.113 295.22 399.414 294.317 399.715 293.415H405.132V272.648H399.715C399.414 271.745 398.962 270.842 398.661 269.939L402.423 266.177L387.676 251.43L383.914 255.192C383.011 254.74 382.108 254.439 381.205 254.138V248.721H360.439V254.138C359.536 254.439 358.633 254.891 357.73 255.192L353.968 251.43L339.07 266.177L342.832 269.939C342.381 270.842 342.08 271.745 341.779 272.648H336.361V293.415H341.779ZM370.822 267.682C379.249 267.682 386.171 274.604 386.171 283.031C386.171 291.458 379.249 298.38 370.822 298.38C362.395 298.38 355.473 291.458 355.473 283.031C355.322 274.604 362.244 267.682 370.822 267.682Z" fill="url(#paint5_linear_12_744)"/>
<path d="M410.249 271.896C414.161 266.629 422.589 269.789 422.288 276.41C422.288 277.162 422.137 277.915 421.987 278.667C420.482 285.74 414.312 306.206 412.356 309.516C410.399 312.827 404.38 314.482 399.866 315.536C395.351 316.439 380.604 319.9 376.691 320.05C376.691 320.05 374.283 316.589 375.939 314.332C375.939 314.332 387.375 309.968 393.395 308.012C399.565 305.905 402.574 303.196 402.574 303.196C402.574 303.196 406.788 282.279 408.142 276.26C408.744 274.454 409.346 272.949 410.249 271.896Z" fill="url(#paint6_linear_12_744)"/>
<path d="M377.443 315.837L376.089 314.482C376.089 314.482 374.283 314.332 373.23 313.429C372.176 312.526 368.565 310.419 367.812 310.419C367.06 310.419 367.361 311.924 368.113 313.128C368.866 314.332 369.919 315.385 369.919 315.385C369.919 315.385 367.06 315.536 365.856 314.934C364.652 314.332 361.492 311.924 360.439 311.322C359.385 310.72 358.633 310.57 358.482 310.871C358.181 311.322 360.288 313.73 360.89 314.633C360.89 314.633 358.181 313.278 357.429 312.977C356.676 312.676 355.623 312.676 355.774 313.278C355.774 313.88 358.783 315.536 359.235 316.138C359.235 316.138 357.579 315.837 356.977 315.837C356.375 315.837 355.924 316.288 356.526 316.74C356.977 317.191 361.191 318.545 362.244 318.997C363.298 319.448 368.264 320.953 370.521 320.803C372.778 320.652 376.54 319.9 376.54 319.9L377.443 315.837Z" fill="#F0AC71"/>
<path d="M483.083 344.579C483.083 344.579 478.267 348.19 473.151 349.846C467.884 351.501 463.52 353.608 463.821 355.113C464.122 356.618 468.787 356.618 473.452 356.618C478.117 356.768 486.092 356.918 487.447 356.467C488.801 356.016 489.854 353.608 489.102 349.545C488.35 345.482 483.083 344.579 483.083 344.579Z" fill="url(#paint7_linear_12_744)"/>
<path d="M588.571 337.205C588.571 337.205 588.12 343.224 586.013 348.19C583.906 353.156 582.401 357.972 583.906 358.724C585.261 359.477 588.27 355.865 591.43 352.554C594.591 349.093 599.857 343.224 600.459 341.87C600.911 340.516 599.857 338.258 596.396 336.152C592.935 334.045 588.571 337.205 588.571 337.205Z" fill="url(#paint8_linear_12_744)"/>
<path d="M518.447 255.794C518.447 255.794 488.952 273.551 482.782 278.968C476.612 284.386 476.612 291.609 476.462 303.798C476.311 315.987 478.267 346.535 478.267 346.535C478.267 346.535 484.738 348.492 488.952 346.535C489.855 343.827 493.316 295.672 494.369 293.264C495.423 290.857 534.699 276.26 534.699 276.26C534.699 276.26 534.398 252.333 518.447 255.794Z" fill="url(#paint9_linear_12_744)"/>
<path d="M501.893 257.75C501.893 257.75 519.951 286.041 539.213 303.948C547.79 311.924 580.746 336.001 587.217 342.021C587.217 342.021 593.086 340.064 594.44 334.346C594.44 334.346 560.732 299.434 555.314 293.716C549.897 288.148 528.227 247.668 528.227 247.668C528.227 247.668 504.602 244.658 501.893 257.75Z" fill="url(#paint10_linear_12_744)"/>
<path d="M438.539 217.872C438.539 217.872 436.734 217.119 436.132 214.26C435.53 211.401 434.476 207.338 434.175 205.081C433.875 202.823 432.52 199.513 431.617 200.265C430.865 201.018 431.467 204.479 431.617 205.532C431.768 206.586 432.37 211.401 432.37 211.401C432.37 211.401 431.617 210.95 431.467 212.003C431.316 213.056 432.219 216.818 432.37 218.775C432.52 220.731 432.37 225.546 438.539 224.644C444.86 223.891 438.539 217.872 438.539 217.872Z" fill="#F0AC71"/>
<path d="M503.548 202.823C503.548 202.823 500.99 202.974 497.379 210.197C493.917 217.42 494.971 237.284 497.83 247.968C500.689 258.502 504 264.522 505.655 263.92C507.311 263.318 513.631 260.158 518.597 260.158C523.563 260.158 531.538 260.007 532.14 253.687C532.14 253.687 526.873 243.604 526.572 233.071C526.271 222.537 527.475 209.595 522.208 204.027C516.941 198.459 510.922 197.857 507.009 199.663C502.946 201.319 503.548 202.823 503.548 202.823Z" fill="url(#paint11_linear_12_744)"/>
<path d="M515.587 206.285C513.781 205.532 511.825 205.532 509.869 206.134C503.548 207.79 485.039 212.605 479.772 213.659C473.452 214.862 438.389 218.173 438.389 218.173C438.389 218.173 437.486 219.226 437.486 221.032C437.486 222.838 438.54 224.945 438.54 224.945C438.54 224.945 471.646 225.697 479.772 224.945C487.898 224.192 509.869 221.183 514.835 219.076C519.65 216.969 520.252 212.455 519.349 209.746C518.898 207.94 517.393 206.887 515.587 206.285Z" fill="url(#paint12_linear_12_744)"/>
<path d="M490.908 185.518C490.908 185.518 489.403 183.411 489.403 179.8C489.403 176.188 490.908 171.975 495.272 169.868C499.636 167.911 506.558 168.513 508.665 172.576C508.665 172.576 512.427 171.975 513.631 177.994C514.835 183.863 514.684 188.076 510.471 193.795C506.257 199.513 490.908 185.518 490.908 185.518Z" fill="url(#paint13_linear_12_744)"/>
<path d="M490.908 186.12C490.908 186.12 489.102 177.392 500.238 176.037C511.374 174.834 507.01 181.154 507.01 181.154C507.01 181.154 507.461 182.358 507.762 184.164C507.912 183.411 508.364 182.508 509.718 182.508C511.825 182.508 513.631 190.935 508.966 190.785C508.966 191.086 508.966 191.236 508.966 191.537C508.665 194.998 502.194 202.824 496.626 201.168C491.058 199.513 490.908 186.12 490.908 186.12Z" fill="#F0AC71"/>
<path d="M490.908 184.615C490.908 184.615 495.121 188.227 497.228 186.873C498.733 185.97 497.83 182.96 497.83 182.96C497.83 182.96 501.442 186.271 502.646 185.669C503.699 185.067 503.398 182.96 503.398 182.96C503.398 182.96 507.009 186.722 507.762 185.819C508.514 184.916 508.364 180.251 508.364 180.251C508.364 180.251 510.621 169.868 502.345 171.222C494.218 172.727 490.456 178.747 490.908 184.615Z" fill="url(#paint14_linear_12_744)"/>
<path d="M509.417 190.334C509.417 190.334 510.17 197.707 510.17 199.062C510.17 200.416 505.505 206.435 503.097 205.382C500.689 204.329 502.796 195.3 502.796 195.3C502.796 195.3 506.558 189.581 509.417 190.334Z" fill="#F0AC71"/>
<path d="M427.404 236.381C427.404 236.381 430.865 236.08 431.166 242.1C431.467 248.119 429.059 252.483 426.049 255.643C426.049 255.643 426.651 257.148 424.695 258.352C422.739 259.556 417.321 259.255 417.321 259.255L406.185 243.304C406.185 243.304 402.574 243.153 402.724 240.143C402.724 240.143 402.724 240.143 402.724 239.993C402.875 238.037 403.778 236.381 405.433 235.328C406.637 234.576 408.142 233.221 409.496 231.415C411.904 227.954 417.171 226.75 420.481 227.653C423.641 228.707 427.404 231.415 427.404 236.381Z" fill="url(#paint15_linear_12_744)"/>
<path d="M419.88 255.041C419.88 255.041 418.074 260.158 417.622 261.362C417.171 262.566 411.302 263.619 410.098 263.318C408.894 262.867 408.443 260.91 409.647 257.6C410.851 254.439 419.88 255.041 419.88 255.041Z" fill="#F0AC71"/>
<path d="M406.787 241.347C406.787 241.347 408.744 232.619 419.428 235.93C430.112 239.241 423.641 243.304 423.641 243.304C423.641 243.304 423.491 244.658 423.19 246.313C423.642 245.711 424.394 245.11 425.598 245.561C427.554 246.313 425.748 254.891 421.535 252.784C421.384 253.085 421.384 253.236 421.234 253.386C419.578 256.396 410.549 261.061 406.035 257.148C401.52 253.537 406.787 241.347 406.787 241.347Z" fill="#F0AC71"/>
<path d="M406.035 243.304C406.035 243.304 409.797 243.605 412.656 241.498C412.656 241.498 417.472 249.172 418.826 247.969C420.181 246.765 418.826 243.604 418.826 243.604C418.826 243.604 420.481 247.969 421.836 247.969C423.19 247.969 423.341 245.41 423.341 245.41L426.651 241.648C426.651 241.648 427.253 239.692 427.253 239.391C427.253 239.24 425.748 237.435 425.447 236.983C425.147 236.532 415.817 232.92 415.817 232.92C415.817 232.92 414.312 233.522 413.86 233.673C413.409 233.823 408.894 234.876 408.894 234.876C408.894 234.876 407.088 237.435 406.487 237.886C406.035 238.338 404.982 239.09 404.982 239.24C405.132 239.692 406.035 243.304 406.035 243.304Z" fill="url(#paint16_linear_12_744)"/>
<path d="M310.328 140.072C310.328 141.189 309.884 142.261 309.094 143.051C308.303 143.842 307.232 144.285 306.114 144.285C304.997 144.285 303.925 143.842 303.135 143.051C302.345 142.261 301.901 141.189 301.901 140.072C301.901 138.954 302.345 137.883 303.135 137.093C303.925 136.302 304.997 135.858 306.114 135.858C307.232 135.858 308.303 136.302 309.094 137.093C309.884 137.883 310.328 138.954 310.328 140.072Z" fill="#F7F7F7"/>
<path d="M324.022 140.072C324.022 141.189 323.578 142.261 322.788 143.051C321.997 143.842 320.926 144.285 319.808 144.285C318.691 144.285 317.619 143.842 316.829 143.051C316.039 142.261 315.595 141.189 315.595 140.072C315.595 138.954 316.039 137.883 316.829 137.093C317.619 136.302 318.691 135.858 319.808 135.858C320.926 135.858 321.997 136.302 322.788 137.093C323.578 137.883 324.022 138.954 324.022 140.072Z" fill="#F7F7F7"/>
<path d="M337.716 140.072C337.716 141.189 337.272 142.261 336.481 143.051C335.691 143.842 334.62 144.285 333.502 144.285C332.385 144.285 331.313 143.842 330.523 143.051C329.732 142.261 329.289 141.189 329.289 140.072C329.289 138.954 329.732 137.883 330.523 137.093C331.313 136.302 332.385 135.858 333.502 135.858C334.62 135.858 335.691 136.302 336.481 137.093C337.272 137.883 337.716 138.954 337.716 140.072V140.072Z" fill="#F7F7F7"/>
<path d="M150.966 359.326H254.348C263.979 359.326 271.804 351.501 271.804 341.87V142.028C271.804 132.397 263.979 124.572 254.348 124.572H150.966C141.335 124.572 133.51 132.397 133.51 142.028V341.87C133.51 351.501 141.335 359.326 150.966 359.326Z" fill="#F7F7F7"/>
<path d="M254.348 359.928H150.966C141.034 359.928 132.908 351.802 132.908 341.87V142.028C132.908 132.097 141.034 123.97 150.966 123.97H254.348C264.28 123.97 272.406 132.097 272.406 142.028V341.87C272.406 351.802 264.28 359.928 254.348 359.928ZM150.966 125.174C141.636 125.174 134.112 132.698 134.112 142.028V341.87C134.112 351.2 141.636 358.725 150.966 358.725H254.348C263.678 358.725 271.202 351.2 271.202 341.87V142.028C271.202 132.698 263.678 125.174 254.348 125.174H150.966Z" fill="#E6E7E8"/>
<path d="M254.348 124.572H150.966C141.335 124.572 133.51 132.397 133.51 142.028V157.378H271.804V142.028C271.804 132.397 263.979 124.572 254.348 124.572Z" fill="#2734FF"/>
<path d="M155.781 140.072C155.781 141.189 155.337 142.261 154.547 143.051C153.757 143.842 152.685 144.285 151.568 144.285C150.45 144.285 149.379 143.842 148.588 143.051C147.798 142.261 147.354 141.189 147.354 140.072C147.354 138.954 147.798 137.883 148.588 137.093C149.379 136.302 150.45 135.858 151.568 135.858C152.685 135.858 153.757 136.302 154.547 137.093C155.337 137.883 155.781 138.954 155.781 140.072Z" fill="#F7F7F7"/>
<path d="M169.475 140.072C169.475 141.189 169.031 142.261 168.241 143.051C167.451 143.842 166.379 144.285 165.262 144.285C164.144 144.285 163.072 143.842 162.282 143.051C161.492 142.261 161.048 141.189 161.048 140.072C161.048 138.954 161.492 137.883 162.282 137.093C163.072 136.302 164.144 135.858 165.262 135.858C166.379 135.858 167.451 136.302 168.241 137.093C169.031 137.883 169.475 138.954 169.475 140.072Z" fill="#F7F7F7"/>
<path d="M183.169 140.072C183.169 141.189 182.725 142.261 181.935 143.051C181.145 143.842 180.073 144.285 178.956 144.285C177.838 144.285 176.766 143.842 175.976 143.051C175.186 142.261 174.742 141.189 174.742 140.072C174.742 138.954 175.186 137.883 175.976 137.093C176.766 136.302 177.838 135.858 178.956 135.858C180.073 135.858 181.145 136.302 181.935 137.093C182.725 137.883 183.169 138.954 183.169 140.072V140.072Z" fill="#F7F7F7"/>
<path d="M388.278 212.605C388.278 220.867 384.996 228.79 379.154 234.632C373.313 240.473 365.39 243.755 357.128 243.755C348.867 243.755 340.943 240.473 335.102 234.632C329.26 228.79 325.978 220.867 325.978 212.605C325.978 204.344 329.26 196.42 335.102 190.579C340.943 184.737 348.867 181.455 357.128 181.455C365.39 181.455 373.313 184.737 379.154 190.579C384.996 196.42 388.278 204.344 388.278 212.605V212.605Z" fill="#E8E8E8"/>
<path d="M347.497 203.877C347.497 205.154 346.99 206.379 346.087 207.282C345.183 208.185 343.959 208.692 342.681 208.692C341.404 208.692 340.179 208.185 339.276 207.282C338.373 206.379 337.866 205.154 337.866 203.877C337.866 202.6 338.373 201.375 339.276 200.472C340.179 199.569 341.404 199.062 342.681 199.062C343.959 199.062 345.183 199.569 346.087 200.472C346.99 201.375 347.497 202.6 347.497 203.877V203.877Z" fill="#D6D6D6"/>
<path d="M363.749 206.134C363.749 207.89 363.052 209.574 361.81 210.816C360.568 212.058 358.884 212.755 357.128 212.755C355.372 212.755 353.688 212.058 352.446 210.816C351.204 209.574 350.507 207.89 350.507 206.134C350.507 204.378 351.204 202.694 352.446 201.452C353.688 200.211 355.372 199.513 357.128 199.513C358.884 199.513 360.568 200.211 361.81 201.452C363.052 202.694 363.749 204.378 363.749 206.134V206.134Z" fill="#D6D6D6"/>
<path d="M369.317 224.192L367.812 219.527C366.909 216.518 364.652 214.11 361.943 212.756C360.589 213.809 359.084 214.411 357.278 214.411C355.473 214.411 353.817 213.809 352.613 212.756C349.754 214.11 347.647 216.668 346.594 219.828L345.24 224.192C344.337 226.901 345.992 229.911 348.851 230.513H349.002C354.57 231.867 360.438 231.867 365.856 230.513H366.006C368.565 229.911 370.22 226.901 369.317 224.192Z" fill="#D6D6D6"/>
<path d="M345.089 219.527C345.992 216.668 347.798 214.26 350.055 212.755C349.303 210.95 347.798 209.445 346.143 208.692C345.24 209.445 344.036 209.896 342.681 209.896C341.327 209.896 340.274 209.445 339.22 208.692C337.114 209.595 335.609 211.552 334.856 213.658L333.803 216.818C333.201 218.775 334.405 220.882 336.361 221.483H336.512C339.07 222.085 341.628 222.386 344.186 222.236L345.089 219.527Z" fill="#D6D6D6"/>
<path d="M376.54 203.877C376.54 205.154 376.033 206.379 375.13 207.282C374.227 208.185 373.002 208.692 371.725 208.692C370.448 208.692 369.223 208.185 368.32 207.282C367.417 206.379 366.909 205.154 366.909 203.877C366.909 202.6 367.417 201.375 368.32 200.472C369.223 199.569 370.448 199.062 371.725 199.062C373.002 199.062 374.227 199.569 375.13 200.472C376.033 201.375 376.54 202.6 376.54 203.877V203.877Z" fill="#D6D6D6"/>
<path d="M369.317 219.527C368.414 216.668 366.609 214.26 364.351 212.755C365.104 210.95 366.609 209.445 368.264 208.692C369.167 209.445 370.371 209.896 371.725 209.896C373.079 209.896 374.133 209.445 375.186 208.692C377.293 209.595 378.798 211.552 379.55 213.658L380.604 216.818C381.205 218.775 380.002 220.882 378.045 221.483H377.895C375.337 222.085 372.778 222.386 370.22 222.236L369.317 219.527Z" fill="#D6D6D6"/>
<path d="M253.896 176.188H153.072C151.718 176.188 150.815 175.135 150.815 173.931C150.815 172.576 151.869 171.674 153.072 171.674H253.896C255.251 171.674 256.154 172.727 256.154 173.931C256.304 175.135 255.251 176.188 253.896 176.188Z" fill="#E8E8E8"/>
<path d="M253.896 189.732H153.072C151.718 189.732 150.815 188.678 150.815 187.474C150.815 186.12 151.869 185.217 153.072 185.217H253.896C255.251 185.217 256.154 186.27 256.154 187.474C256.304 188.678 255.251 189.732 253.896 189.732Z" fill="#E8E8E8"/>
<path d="M253.896 203.275H153.072C151.718 203.275 150.815 202.222 150.815 201.018C150.815 199.664 151.869 198.761 153.072 198.761H253.896C255.251 198.761 256.154 199.814 256.154 201.018C256.304 202.222 255.251 203.275 253.896 203.275Z" fill="#E8E8E8"/>
<path d="M253.896 216.819H153.072C151.718 216.819 150.815 215.765 150.815 214.561C150.815 213.207 151.869 212.304 153.072 212.304H253.896C255.251 212.304 256.154 213.358 256.154 214.561C256.304 215.765 255.251 216.819 253.896 216.819Z" fill="#E8E8E8"/>
<path d="M253.896 230.362H153.072C151.718 230.362 150.815 229.309 150.815 228.105C150.815 226.751 151.869 225.848 153.072 225.848H253.896C255.251 225.848 256.154 226.901 256.154 228.105C256.304 229.309 255.251 230.362 253.896 230.362Z" fill="#E8E8E8"/>
<path d="M253.896 243.906H153.072C151.718 243.906 150.815 242.852 150.815 241.648C150.815 240.294 151.869 239.391 153.072 239.391H253.896C255.251 239.391 256.154 240.444 256.154 241.648C256.304 242.852 255.251 243.906 253.896 243.906Z" fill="#E8E8E8"/>
<path d="M253.896 257.449H153.072C151.718 257.449 150.815 256.396 150.815 255.192C150.815 253.837 151.869 252.935 153.072 252.935H253.896C255.251 252.935 256.154 253.988 256.154 255.192C256.304 256.396 255.251 257.449 253.896 257.449Z" fill="#E8E8E8"/>
<path d="M253.896 270.993H153.072C151.718 270.993 150.815 269.939 150.815 268.735C150.815 267.381 151.869 266.478 153.072 266.478H253.896C255.251 266.478 256.154 267.531 256.154 268.735C256.304 269.939 255.251 270.993 253.896 270.993Z" fill="#E8E8E8"/>
<path d="M253.896 284.536H153.072C151.718 284.536 150.815 283.483 150.815 282.279C150.815 280.925 151.869 280.022 153.072 280.022H253.896C255.251 280.022 256.154 281.075 256.154 282.279C256.304 283.483 255.251 284.536 253.896 284.536Z" fill="#E8E8E8"/>
<path d="M253.896 298.08H153.072C151.718 298.08 150.815 297.026 150.815 295.822C150.815 294.468 151.869 293.565 153.072 293.565H253.896C255.251 293.565 256.154 294.619 256.154 295.822C256.304 297.026 255.251 298.08 253.896 298.08Z" fill="#E8E8E8"/>
<path d="M253.896 311.623H153.072C151.718 311.623 150.815 310.57 150.815 309.366C150.815 308.012 151.869 307.109 153.072 307.109H253.896C255.251 307.109 256.154 308.162 256.154 309.366C256.304 310.57 255.251 311.623 253.896 311.623Z" fill="#E8E8E8"/>
<path d="M253.896 325.167H153.072C151.718 325.167 150.815 324.113 150.815 322.909C150.815 321.555 151.869 320.652 153.072 320.652H253.896C255.251 320.652 256.154 321.705 256.154 322.909C256.304 324.113 255.251 325.167 253.896 325.167Z" fill="#E8E8E8"/>
<path d="M253.896 338.71H153.072C151.718 338.71 150.815 337.657 150.815 336.453C150.815 335.098 151.869 334.196 153.072 334.196H253.896C255.251 334.196 256.154 335.249 256.154 336.453C256.304 337.657 255.251 338.71 253.896 338.71Z" fill="#E8E8E8"/>
<path d="M107.627 388.821C107.627 388.821 21.0986 395.443 2.43871 407.632C-16.2212 419.821 112.141 423.583 169.927 420.874C227.712 418.165 269.697 412.447 284.746 404.772C299.794 397.098 190.844 387.918 107.627 388.821Z" fill="#DEDBFF"/>
<path d="M490.907 110.728L530.786 136.009L561.785 87.1021L490.907 110.728Z" fill="url(#paint17_linear_12_744)"/>
<path d="M561.785 87.1021L515.587 126.378L507.762 136.009L506.257 120.509L561.785 87.1021Z" fill="url(#paint18_linear_12_744)"/>
<path d="M517.694 127.733L507.762 136.009L515.587 126.378L517.694 127.733Z" fill="#2734FF"/>
<path d="M497.378 148.8L496.175 147.747C498.432 145.189 499.485 143.834 499.485 143.684L500.689 144.587C500.689 144.737 499.636 146.092 497.378 148.8Z" fill="#2734FF"/>
<path d="M132.456 306.657V305.152C135.767 305.152 139.378 305.002 143.14 304.701L143.291 306.206C139.378 306.507 135.767 306.657 132.456 306.657ZM121.772 306.657C118.01 306.507 114.398 306.206 111.088 305.905L111.238 304.4C114.549 304.852 118.16 305.002 121.772 305.152V306.657ZM153.825 305.453L153.674 303.949C157.135 303.648 160.597 303.196 164.208 302.745L164.359 304.25C160.747 304.701 157.286 305.153 153.825 305.453ZM100.403 304.099C96.6411 303.347 93.18 302.293 90.0199 301.089L90.6218 299.735C93.6315 300.939 97.0926 301.992 100.704 302.745L100.403 304.099ZM175.043 302.745L174.742 301.24C178.203 300.788 181.664 300.187 185.276 299.434L185.577 300.939C181.965 301.541 178.354 302.143 175.043 302.745ZM196.111 298.983L195.81 297.478C199.271 296.876 202.732 296.123 206.193 295.371L206.494 296.876C202.882 297.628 199.421 298.381 196.111 298.983ZM80.5394 296.123C77.3793 294.017 74.8211 291.458 72.7143 288.599L73.9181 287.696C75.8744 290.405 78.2822 292.813 81.2919 294.92L80.5394 296.123ZM216.877 294.468L216.576 292.963C220.038 292.211 223.499 291.308 226.96 290.556L227.261 292.06C223.8 292.963 220.338 293.716 216.877 294.468ZM237.644 289.502L237.343 287.997C240.654 287.094 244.115 286.192 247.726 285.289L248.178 286.794C244.566 287.696 241.105 288.599 237.644 289.502ZM258.26 283.934L257.809 282.429C261.27 281.527 264.731 280.473 268.042 279.42L268.493 280.925C265.183 281.978 261.721 282.881 258.26 283.934ZM68.1998 278.667C67.5979 276.26 67.2969 273.701 67.2969 270.993C67.2969 269.939 67.2969 268.886 67.4474 267.833L68.9522 267.983C68.8017 269.037 68.8017 269.939 68.8017 270.993C68.8017 273.551 69.1027 276.109 69.5541 278.366L68.1998 278.667ZM278.726 277.765L278.275 276.26C281.736 275.206 285.046 274.002 288.357 272.949L288.808 274.303C285.648 275.658 282.187 276.711 278.726 277.765ZM299.041 270.993L298.59 269.638C302.051 268.435 305.362 267.231 308.672 266.027L309.124 267.381C305.813 268.585 302.502 269.789 299.041 270.993ZM319.056 263.619L318.454 262.265C321.764 260.91 325.075 259.706 328.386 258.352L328.987 259.707C325.827 261.061 322.517 262.265 319.056 263.619ZM70.9085 257.6L69.4036 257.148C70.3065 253.988 71.5104 250.527 73.1657 247.066L74.5201 247.668C73.0153 251.129 71.8114 254.44 70.9085 257.6ZM338.919 255.493L338.317 254.139C341.628 252.784 344.939 251.279 348.099 249.775L348.701 251.129C345.39 252.634 342.23 254.139 338.919 255.493ZM358.332 246.765L357.73 245.411C361.04 243.906 364.201 242.25 367.361 240.746L367.963 242.1C364.803 243.605 361.642 245.26 358.332 246.765ZM377.443 237.284L376.691 235.93C379.851 234.275 383.011 232.62 386.171 230.964L386.924 232.319C383.763 233.974 380.603 235.629 377.443 237.284ZM396.254 227.052L395.501 225.697C398.661 223.891 401.671 222.086 404.681 220.28L405.433 221.634C402.423 223.44 399.414 225.246 396.254 227.052ZM414.613 216.066L413.86 214.862C416.87 213.057 419.879 211.1 422.889 209.144L423.642 210.348C420.632 212.304 417.622 214.261 414.613 216.066ZM432.52 204.329L431.617 203.125C434.627 201.168 437.486 199.062 440.345 196.955L441.248 198.159C438.389 200.266 435.379 202.372 432.52 204.329ZM449.826 191.839L448.923 190.635C451.782 188.528 454.641 186.271 457.35 184.013L458.253 185.217C455.544 187.474 452.685 189.581 449.826 191.839ZM466.529 178.445L465.626 177.242C468.335 174.984 471.044 172.577 473.602 170.319L474.655 171.373C471.947 173.781 469.238 176.188 466.529 178.445ZM482.48 164.15L481.427 163.096C484.136 160.538 486.544 157.98 488.951 155.572L490.005 156.625C487.597 159.033 485.039 161.591 482.48 164.15Z" fill="#2734FF"/>
<path d="M79.3358 238.037L77.9814 237.285C78.8843 235.78 79.7872 234.275 80.6901 232.77L82.0445 233.522C81.1416 235.027 80.2387 236.532 79.3358 238.037Z" fill="url(#paint19_linear_12_744)"/>
<path d="M221.843 394.991C221.843 394.991 225.906 389.574 227.863 383.705C229.819 377.836 232.076 372.72 233.882 373.021C235.688 373.472 235.537 378.739 235.537 384.006C235.537 389.273 235.688 398.452 235.236 399.957C234.785 401.462 232.076 402.666 227.411 401.763C222.746 400.86 221.843 394.991 221.843 394.991Z" fill="url(#paint20_linear_12_744)"/>
<path d="M67.2969 397.85L66.5445 398.603C66.5445 398.603 65.1901 400.258 61.2776 400.709C57.365 401.161 52.3991 401.462 50.2923 402.064C48.1855 402.666 48.1855 402.666 48.1855 403.117C48.1855 403.568 50.4428 404.471 53.6029 403.869C56.7631 403.117 60.6756 404.17 62.1805 404.17C63.6853 404.17 64.8892 404.772 67.2969 404.772C69.7046 404.622 70.9085 403.568 71.8114 401.311C72.7143 399.204 67.2969 397.85 67.2969 397.85Z" fill="#F0AC71"/>
<path d="M123.879 322.007C123.879 322.007 115.301 343.375 104.918 353.759C94.3841 364.142 76.7775 371.215 70.6077 366.851C64.2874 362.487 66.2437 351.2 68.0495 347.739C69.8553 344.278 65.7922 343.225 64.8893 335.4C63.9864 327.574 72.865 319.749 78.1319 315.385C83.3988 311.021 86.1075 306.808 85.8066 298.682C85.5056 290.405 90.321 284.687 96.1899 283.031C102.059 281.376 104.918 285.138 104.918 285.138C104.918 285.138 108.229 284.085 111.389 288.148C114.549 292.211 115.452 299.133 115.753 303.648C116.204 308.162 122.825 310.871 123.879 314.332C124.932 317.643 123.879 322.007 123.879 322.007Z" fill="url(#paint21_linear_12_744)"/>
<path d="M111.99 318.696C111.99 318.696 118.311 317.793 124.481 321.254C130.65 324.565 144.946 334.196 145.699 334.346C146.602 334.647 143.592 313.881 144.344 311.924C145.097 309.968 148.106 310.118 149.009 311.924C149.912 313.73 154.126 329.38 155.631 337.958C157.135 346.535 157.587 348.191 151.718 349.846C145.849 351.501 117.859 333.895 116.505 331.337C115 328.778 111.99 318.696 111.99 318.696Z" fill="url(#paint22_linear_12_744)"/>
<path d="M105.369 315.837C105.369 315.837 90.7722 318.545 86.1072 328.026C82.3451 335.851 92.4275 344.429 95.7381 350.598C99.0488 356.768 95.1362 384.457 96.1896 387.015C97.243 389.574 114.85 377.535 125.684 378.588C136.519 379.642 136.519 379.642 136.519 379.642C136.519 379.642 133.66 367.753 129.597 357.069C125.684 346.385 126.136 344.128 127.641 339.162C129.145 334.045 130.199 329.531 120.417 323.511C110.486 317.342 105.369 315.837 105.369 315.837Z" fill="url(#paint23_linear_12_744)"/>
<path d="M122.524 379.792C122.524 379.792 158.941 385.21 175.795 387.467C192.649 389.724 223.649 392.583 223.649 392.583C223.649 392.583 227.261 398.452 223.649 401.913C223.649 401.913 180.31 403.418 167.519 402.214C154.878 401.161 108.83 403.569 108.83 403.569C108.83 403.569 104.165 381.598 122.524 379.792Z" fill="url(#paint24_linear_12_744)"/>
<path d="M88.515 324.565C88.515 324.565 80.8404 332.992 77.0783 353.307C77.0783 353.307 67.2969 396.345 66.5444 398.753C66.5444 398.753 68.1998 402.967 70.0056 402.214C71.8114 401.462 71.8114 401.462 71.8114 401.462C71.8114 401.462 80.8403 378.287 85.2044 366.399C89.7189 354.511 98.2965 333.895 95.5878 327.273C92.8791 320.652 88.515 324.565 88.515 324.565Z" fill="url(#paint25_linear_12_744)"/>
<path d="M198.669 388.37C198.669 388.37 204.087 392.433 209.955 394.389C215.824 396.346 220.941 398.603 220.64 400.409C220.188 402.215 214.921 402.064 209.654 402.064C204.388 402.215 195.208 402.215 193.703 401.763C192.198 401.312 190.995 398.603 191.897 393.938C192.8 389.423 198.669 388.37 198.669 388.37Z" fill="url(#paint26_linear_12_744)"/>
<path d="M145.398 313.128C145.097 312.526 144.194 311.924 144.194 311.924C144.194 311.924 142.99 307.259 143.291 305.002C143.743 302.745 144.947 300.939 146 300.638C147.053 300.337 151.869 304.25 151.869 304.25L152.922 308.614C152.922 308.614 151.718 312.827 149.612 314.031C147.505 315.235 145.398 313.128 145.398 313.128Z" fill="#F0AC71"/>
<path d="M101.306 380.394C94.8352 385.511 94.5342 395.593 101.005 400.71C101.306 400.86 101.607 401.161 101.757 401.312C110.937 407.782 125.082 398.452 131.252 390.477C137.422 382.501 153.975 362.788 153.975 362.788L191.747 394.088C191.747 394.088 198.97 393.787 198.518 387.166C198.518 387.166 175.494 356.618 165.713 348.642C155.931 340.817 147.805 346.385 139.077 352.705C132.155 357.972 111.689 372.118 101.306 380.394Z" fill="url(#paint27_linear_12_744)"/>
<path fill-rule="evenodd" clip-rule="evenodd" d="M143.802 295.971L159.092 314.031L155.781 316.89L131.553 288.449L135.014 285.59L139.03 290.333L155.029 261.362L174.29 286.041L143.802 295.971Z" fill="url(#paint28_linear_12_744)"/>
<path d="M112.141 295.823C111.238 291.91 108.078 286.643 102.811 286.041C97.544 285.439 92.4275 290.104 91.9761 295.823C91.8256 298.08 91.9761 300.337 92.578 302.594C92.1266 302.293 91.5246 301.992 90.9227 302.444C89.4179 303.497 90.9227 307.861 93.6314 308.764C94.2333 308.915 94.6848 308.915 94.9857 308.764C95.4372 309.667 96.0391 310.57 96.6411 311.172C99.3498 314.332 108.68 317.643 112.291 312.827C115.602 308.012 112.141 295.823 112.141 295.823Z" fill="#F0AC71"/>
<path d="M92.4274 302.745C92.4274 302.745 95.2866 305.454 98.1457 304.852C101.005 304.25 105.068 297.478 104.917 289.201C104.917 289.201 109.282 296.575 111.238 296.575C113.194 296.575 112.291 292.663 112.291 292.663C112.291 292.663 108.379 286.342 104.917 285.289C101.456 284.235 95.8885 285.439 93.0293 288.75C90.0196 291.91 89.8692 300.187 92.4274 302.745Z" fill="url(#paint29_linear_12_744)"/>
<path d="M97.845 311.924C97.845 311.924 99.1993 317.041 100.102 319.148C101.005 321.254 106.422 323.361 108.68 323.06C110.937 322.759 110.937 319.298 110.034 314.633C109.131 309.968 97.845 311.924 97.845 311.924Z" fill="#F0AC71"/>
<path d="M144.645 305.303L143.592 304.4C143.592 304.4 144.194 301.992 145.548 301.24C146.902 300.337 149.31 302.594 150.063 303.046C150.815 303.648 150.063 305.002 148.257 304.852C146.301 304.701 145.849 304.4 145.849 304.4C145.849 304.4 146.601 305.454 147.053 307.109C147.354 308.463 144.645 305.303 144.645 305.303Z" fill="#F0AC71"/>
<path d="M149.16 299.283C149.16 299.283 150.364 298.832 150.815 299.885C151.266 300.939 151.567 300.186 152.169 300.939C152.771 301.691 152.47 302.143 153.223 302.745C153.975 303.346 154.427 303.798 154.577 304.55C154.878 305.303 153.825 308.613 152.922 309.516C152.019 310.419 151.116 308.764 151.267 307.861C151.267 306.958 149.912 307.711 149.611 307.109C149.31 306.507 149.611 306.206 149.16 305.754C148.708 305.303 147.354 305.002 147.053 304.249C146.752 303.497 146.15 303.497 146.15 302.895C146.15 302.143 145.398 300.487 149.16 299.283Z" fill="#F0AC71"/>
<path d="M208.902 174.382H65.1902C61.4281 174.382 58.4185 177.392 58.4185 181.154V214.411C58.4185 218.173 61.4281 221.183 65.1902 221.183H170.83L179.257 232.619L187.684 221.183H208.902C212.664 221.183 215.674 218.173 215.674 214.411V181.154C215.674 177.392 212.664 174.382 208.902 174.382Z" fill="url(#paint30_linear_12_744)"/>
<path d="M69.8555 182.508H100.554V213.207H69.8555V182.508Z" fill="#F7F7F7"/>
<path d="M200.475 189.28H115.753C114.549 189.28 113.646 188.378 113.646 187.174C113.646 185.97 114.549 185.067 115.753 185.067H200.475C201.678 185.067 202.581 185.97 202.581 187.174C202.732 188.378 201.678 189.28 200.475 189.28Z" fill="white"/>
<path d="M200.475 199.965H115.753C114.549 199.965 113.646 199.062 113.646 197.858C113.646 196.654 114.549 195.751 115.753 195.751H200.475C201.678 195.751 202.581 196.654 202.581 197.858C202.732 199.062 201.678 199.965 200.475 199.965Z" fill="white"/>
<path d="M200.475 210.799H115.753C114.549 210.799 113.646 209.896 113.646 208.692C113.646 207.489 114.549 206.586 115.753 206.586H200.475C201.678 206.586 202.581 207.489 202.581 208.692C202.732 209.746 201.678 210.799 200.475 210.799Z" fill="white"/>
<path d="M285.047 91.7671H278.124V84.8449C278.124 83.7915 277.221 83.0391 276.319 83.0391C275.265 83.0391 274.513 83.942 274.513 84.8449V91.7671H267.59C266.537 91.7671 265.785 92.67 265.785 93.5729C265.785 94.6263 266.688 95.3787 267.59 95.3787H274.513V102.301C274.513 103.354 275.416 104.107 276.319 104.107C277.372 104.107 278.124 103.204 278.124 102.301V95.3787H285.047C286.1 95.3787 286.852 94.4758 286.852 93.5729C286.852 92.67 286.1 91.7671 285.047 91.7671Z" fill="#2734FF"/>
<path d="M545.684 229.761H552.606V236.683C552.606 237.736 553.509 238.489 554.412 238.489C555.315 238.489 556.217 237.586 556.217 236.683V229.761H563.14C564.193 229.761 564.946 228.858 564.946 227.955C564.946 226.901 564.043 226.149 563.14 226.149H556.217V219.227C556.217 218.173 555.315 217.421 554.412 217.421C553.509 217.421 552.606 218.324 552.606 219.227V226.149H545.684C544.63 226.149 543.878 227.052 543.878 227.955C543.878 228.858 544.63 229.761 545.684 229.761Z" fill="url(#paint31_linear_12_744)"/>
<path d="M45.6273 297.327H38.7051V290.405C38.7051 289.352 37.8022 288.599 36.8993 288.599C35.9964 288.599 35.0935 289.502 35.0935 290.405V297.327H28.1713C27.1179 297.327 26.3655 298.23 26.3655 299.133C26.3655 300.036 27.2684 300.939 28.1713 300.939H35.0935V307.861C35.0935 308.914 35.9964 309.667 36.8993 309.667C37.8022 309.667 38.7051 308.764 38.7051 307.861V300.939H45.6273C46.6807 300.939 47.4331 300.036 47.4331 299.133C47.4331 298.23 46.6807 297.327 45.6273 297.327Z" fill="url(#paint32_linear_12_744)"/>
<defs>
<filter id="filter0_d_12_744" x="50.1611" y="107.511" width="133.591" height="43.668" filterUnits="userSpaceOnUse" color-interpolation-filters="sRGB">
<feFlood flood-opacity="0" result="BackgroundImageFix"/>
<feColorMatrix in="SourceAlpha" type="matrix" values="0 0 0 0 0 0 0 0 0 0 0 0 0 0 0 0 0 0 127 0" result="hardAlpha"/>
<feOffset dy="3"/>
<feGaussianBlur stdDeviation="3"/>
<feComposite in2="hardAlpha" operator="out"/>
<feColorMatrix type="matrix" values="0 0 0 0 0 0 0 0 0 0 0 0 0 0 0 0 0 0 0.1 0"/>
<feBlend mode="normal" in2="BackgroundImageFix" result="effect1_dropShadow_12_744"/>
<feBlend mode="normal" in="SourceGraphic" in2="effect1_dropShadow_12_744" result="shape"/>
</filter>
<filter id="filter1_d_12_744" x="397.025" y="64.3059" width="163.236" height="51.3589" filterUnits="userSpaceOnUse" color-interpolation-filters="sRGB">
<feFlood flood-opacity="0" result="BackgroundImageFix"/>
<feColorMatrix in="SourceAlpha" type="matrix" values="0 0 0 0 0 0 0 0 0 0 0 0 0 0 0 0 0 0 127 0" result="hardAlpha"/>
<feOffset dy="3"/>
<feGaussianBlur stdDeviation="3"/>
<feComposite in2="hardAlpha" operator="out"/>
<feColorMatrix type="matrix" values="0 0 0 0 0 0 0 0 0 0 0 0 0 0 0 0 0 0 0.1 0"/>
<feBlend mode="normal" in2="BackgroundImageFix" result="effect1_dropShadow_12_744"/>
<feBlend mode="normal" in="SourceGraphic" in2="effect1_dropShadow_12_744" result="shape"/>
</filter>
<linearGradient id="paint0_linear_12_744" x1="453.442" y1="410.979" x2="466.06" y2="410.979" gradientUnits="userSpaceOnUse">
<stop stop-color="#8ABAFF"/>
<stop offset="0.388" stop-color="#8AB3FF"/>
<stop offset="0.9486" stop-color="#89A0FF"/>
<stop offset="0.9951" stop-color="#899EFF"/>
</linearGradient>
<linearGradient id="paint1_linear_12_744" x1="407.488" y1="364.754" x2="453.533" y2="358.248" gradientUnits="userSpaceOnUse">
<stop offset="0.00492611" stop-color="#601FDD"/>
<stop offset="1" stop-color="#736AE8"/>
</linearGradient>
<linearGradient id="paint2_linear_12_744" x1="367.595" y1="425.699" x2="393.092" y2="425.699" gradientUnits="userSpaceOnUse">
<stop stop-color="#8ABAFF"/>
<stop offset="0.388" stop-color="#8AB3FF"/>
<stop offset="0.9486" stop-color="#89A0FF"/>
<stop offset="0.9951" stop-color="#899EFF"/>
</linearGradient>
<linearGradient id="paint3_linear_12_744" x1="382.218" y1="368.93" x2="434.441" y2="368.93" gradientUnits="userSpaceOnUse">
<stop offset="0.00492611" stop-color="#601FDD"/>
<stop offset="1" stop-color="#736AE8"/>
</linearGradient>
<linearGradient id="paint4_linear_12_744" x1="401.363" y1="291.255" x2="434.593" y2="291.255" gradientUnits="userSpaceOnUse">
<stop stop-color="#8ABAFF"/>
<stop offset="0.388" stop-color="#8AB3FF"/>
<stop offset="0.9486" stop-color="#89A0FF"/>
<stop offset="0.9951" stop-color="#899EFF"/>
</linearGradient>
<linearGradient id="paint5_linear_12_744" x1="336.443" y1="283.072" x2="405.095" y2="283.072" gradientUnits="userSpaceOnUse">
<stop stop-color="#EFAA07"/>
<stop offset="1" stop-color="#FCD327"/>
</linearGradient>
<linearGradient id="paint6_linear_12_744" x1="416.539" y1="273.793" x2="391.181" y2="317.195" gradientUnits="userSpaceOnUse">
<stop stop-color="#8ABAFF"/>
<stop offset="0.388" stop-color="#8AB3FF"/>
<stop offset="0.9486" stop-color="#89A0FF"/>
<stop offset="0.9951" stop-color="#899EFF"/>
</linearGradient>
<linearGradient id="paint7_linear_12_744" x1="463.735" y1="350.623" x2="489.232" y2="350.623" gradientUnits="userSpaceOnUse">
<stop stop-color="#8ABAFF"/>
<stop offset="0.388" stop-color="#8AB3FF"/>
<stop offset="0.9486" stop-color="#89A0FF"/>
<stop offset="0.9951" stop-color="#899EFF"/>
</linearGradient>
<linearGradient id="paint8_linear_12_744" x1="583.34" y1="347.127" x2="600.513" y2="347.127" gradientUnits="userSpaceOnUse">
<stop stop-color="#8ABAFF"/>
<stop offset="0.388" stop-color="#8AB3FF"/>
<stop offset="0.9486" stop-color="#89A0FF"/>
<stop offset="0.9951" stop-color="#899EFF"/>
</linearGradient>
<linearGradient id="paint9_linear_12_744" x1="476.484" y1="301.471" x2="534.813" y2="301.471" gradientUnits="userSpaceOnUse">
<stop offset="0.00492611" stop-color="#601FDD"/>
<stop offset="1" stop-color="#736AE8"/>
</linearGradient>
<linearGradient id="paint10_linear_12_744" x1="501.838" y1="294.709" x2="594.352" y2="294.709" gradientUnits="userSpaceOnUse">
<stop offset="0.00492611" stop-color="#601FDD"/>
<stop offset="1" stop-color="#736AE8"/>
</linearGradient>
<linearGradient id="paint11_linear_12_744" x1="495.242" y1="231.376" x2="532.114" y2="231.376" gradientUnits="userSpaceOnUse">
<stop stop-color="#8ABAFF"/>
<stop offset="0.388" stop-color="#8AB3FF"/>
<stop offset="0.9486" stop-color="#89A0FF"/>
<stop offset="0.9951" stop-color="#899EFF"/>
</linearGradient>
<linearGradient id="paint12_linear_12_744" x1="437.528" y1="215.35" x2="519.825" y2="215.35" gradientUnits="userSpaceOnUse">
<stop stop-color="#8ABAFF"/>
<stop offset="0.388" stop-color="#8AB3FF"/>
<stop offset="0.9486" stop-color="#89A0FF"/>
<stop offset="0.9951" stop-color="#899EFF"/>
</linearGradient>
<linearGradient id="paint13_linear_12_744" x1="489.368" y1="182.045" x2="514.308" y2="182.045" gradientUnits="userSpaceOnUse">
<stop stop-color="#7313E8"/>
<stop offset="0.9951" stop-color="#601FDD"/>
</linearGradient>
<linearGradient id="paint14_linear_12_744" x1="490.851" y1="179.281" x2="508.628" y2="179.281" gradientUnits="userSpaceOnUse">
<stop stop-color="#7313E8"/>
<stop offset="0.9951" stop-color="#601FDD"/>
</linearGradient>
<linearGradient id="paint15_linear_12_744" x1="402.563" y1="243.358" x2="431.119" y2="243.358" gradientUnits="userSpaceOnUse">
<stop stop-color="#7313E8"/>
<stop offset="0.9951" stop-color="#601FDD"/>
</linearGradient>
<linearGradient id="paint16_linear_12_744" x1="405.095" y1="240.601" x2="427.35" y2="240.601" gradientUnits="userSpaceOnUse">
<stop stop-color="#7313E8"/>
<stop offset="0.9951" stop-color="#601FDD"/>
</linearGradient>
<linearGradient id="paint17_linear_12_744" x1="549.068" y1="90.8972" x2="514.07" y2="120.645" gradientUnits="userSpaceOnUse">
<stop offset="0.00492611" stop-color="#601FDD"/>
<stop offset="1" stop-color="#2734FF"/>
</linearGradient>
<linearGradient id="paint18_linear_12_744" x1="507.635" y1="107.742" x2="566.827" y2="115.937" gradientUnits="userSpaceOnUse">
<stop offset="0.00492611" stop-color="#1521D9"/>
<stop offset="1" stop-color="#736AE8"/>
</linearGradient>
<linearGradient id="paint19_linear_12_744" x1="438.229" y1="346.444" x2="76.5183" y2="234.297" gradientUnits="userSpaceOnUse">
<stop stop-color="#816DFF"/>
<stop offset="0.2664" stop-color="#8274FF"/>
<stop offset="0.6509" stop-color="#8587FF"/>
<stop offset="0.9951" stop-color="#899EFF"/>
</linearGradient>
<linearGradient id="paint20_linear_12_744" x1="221.804" y1="387.484" x2="235.729" y2="387.484" gradientUnits="userSpaceOnUse">
<stop stop-color="#EFAA07"/>
<stop offset="1" stop-color="#FCD327"/>
</linearGradient>
<linearGradient id="paint21_linear_12_744" x1="64.6951" y1="325.388" x2="124.378" y2="325.388" gradientUnits="userSpaceOnUse">
<stop stop-color="#7313E8"/>
<stop offset="0.9951" stop-color="#601FDD"/>
</linearGradient>
<linearGradient id="paint22_linear_12_744" x1="111.941" y1="330.276" x2="156.596" y2="330.276" gradientUnits="userSpaceOnUse">
<stop stop-color="#EFAA07"/>
<stop offset="1" stop-color="#FCD327"/>
</linearGradient>
<linearGradient id="paint23_linear_12_744" x1="85.2865" y1="351.689" x2="136.66" y2="351.689" gradientUnits="userSpaceOnUse">
<stop stop-color="#EFAA07"/>
<stop offset="1" stop-color="#FCD327"/>
</linearGradient>
<linearGradient id="paint24_linear_12_744" x1="108.214" y1="391.677" x2="225.089" y2="391.677" gradientUnits="userSpaceOnUse">
<stop offset="0.00492611" stop-color="#601FDD"/>
<stop offset="1" stop-color="#736AE8"/>
</linearGradient>
<linearGradient id="paint25_linear_12_744" x1="66.5702" y1="362.829" x2="96.2383" y2="362.829" gradientUnits="userSpaceOnUse">
<stop stop-color="#EFAA07"/>
<stop offset="1" stop-color="#FCD327"/>
</linearGradient>
<linearGradient id="paint26_linear_12_744" x1="191.649" y1="395.38" x2="220.642" y2="395.38" gradientUnits="userSpaceOnUse">
<stop stop-color="#EFAA07"/>
<stop offset="1" stop-color="#FCD327"/>
</linearGradient>
<linearGradient id="paint27_linear_12_744" x1="96.3092" y1="374.139" x2="198.672" y2="374.139" gradientUnits="userSpaceOnUse">
<stop offset="0.00492611" stop-color="#601FDD"/>
<stop offset="1" stop-color="#736AE8"/>
</linearGradient>
<linearGradient id="paint28_linear_12_744" x1="131.553" y1="284.698" x2="175.522" y2="285.058" gradientUnits="userSpaceOnUse">
<stop stop-color="#2734FF"/>
<stop offset="1" stop-color="#2734FF" stop-opacity="0.34"/>
</linearGradient>
<linearGradient id="paint29_linear_12_744" x1="90.6523" y1="294.832" x2="112.521" y2="294.832" gradientUnits="userSpaceOnUse">
<stop stop-color="#7313E8"/>
<stop offset="0.9951" stop-color="#601FDD"/>
</linearGradient>
<linearGradient id="paint30_linear_12_744" x1="58.4185" y1="198.857" x2="220.084" y2="203.501" gradientUnits="userSpaceOnUse">
<stop stop-color="#2734FF"/>
<stop offset="1" stop-color="#2734FF" stop-opacity="0.34"/>
</linearGradient>
<linearGradient id="paint31_linear_12_744" x1="564.946" y1="229.635" x2="543.272" y2="229.404" gradientUnits="userSpaceOnUse">
<stop stop-color="#2734FF"/>
<stop offset="1" stop-color="#2734FF" stop-opacity="0.34"/>
</linearGradient>
<linearGradient id="paint32_linear_12_744" x1="26.3655" y1="297.453" x2="48.0394" y2="297.683" gradientUnits="userSpaceOnUse">
<stop stop-color="#2734FF"/>
<stop offset="1" stop-color="#2734FF" stop-opacity="0.34"/>
</linearGradient>
</defs>
</svg>
